<?xml version="1.0" encoding="UTF-8"?>
<svg xmlns="http://www.w3.org/2000/svg" xmlns:xlink="http://www.w3.org/1999/xlink" width="900pt" height="596pt" viewBox="0 0 900 596" version="1.1">
<g id="surface248">
<path style="fill:none;stroke-width:2.4;stroke-linecap:butt;stroke-linejoin:round;stroke:rgb(0%,0%,100%);stroke-opacity:1;stroke-miterlimit:10;" d="M 279 342.96875 C 271.441406 349.46875 255.367188 343.167969 243.09375 328.898438 C 230.824219 314.625 227.003906 297.785156 234.5625 291.289063 C 242.121094 284.789063 258.199219 291.089844 270.46875 305.359375 C 282.738281 319.632813 286.558594 336.472656 279 342.96875 Z M 279 342.96875 " transform="matrix(1,0,0,-1,2,594)"/>
<path style="fill:none;stroke-width:2.4;stroke-linecap:butt;stroke-linejoin:round;stroke:rgb(0%,0%,100%);stroke-opacity:1;stroke-miterlimit:10;" d="M 313.425781 383.011719 C 294.15625 399.582031 253.171875 383.515625 221.886719 347.132813 C 190.601563 310.746094 180.863281 267.816406 200.136719 251.246094 C 219.410156 234.675781 260.390625 250.742188 291.675781 287.125 C 322.960938 323.511719 332.699219 366.441406 313.425781 383.011719 Z M 313.425781 383.011719 " transform="matrix(1,0,0,-1,2,594)"/>
<path style="fill:none;stroke-width:2.4;stroke-linecap:butt;stroke-linejoin:round;stroke:rgb(0%,0%,100%);stroke-opacity:1;stroke-miterlimit:10;" d="M 348.390625 423.675781 C 317.222656 450.472656 250.941406 424.492188 200.347656 365.648438 C 149.757813 306.804688 134.007813 237.378906 165.175781 210.582031 C 196.339844 183.785156 262.621094 209.765625 313.214844 268.609375 C 363.808594 327.453125 379.554688 396.878906 348.390625 423.675781 Z M 348.390625 423.675781 " transform="matrix(1,0,0,-1,2,594)"/>
<path style="fill:none;stroke-width:2.4;stroke-linecap:butt;stroke-linejoin:round;stroke:rgb(0%,0%,100%);stroke-opacity:1;stroke-miterlimit:10;" d="M 577.953125 429.65625 C 577.953125 443.109375 562.675781 454.015625 543.835938 454.015625 C 524.992188 454.015625 509.714844 443.109375 509.714844 429.65625 C 509.714844 416.203125 524.992188 405.296875 543.835938 405.296875 C 562.675781 405.296875 577.953125 416.203125 577.953125 429.65625 Z M 577.953125 429.65625 " transform="matrix(1,0,0,-1,2,594)"/>
<path style="fill:none;stroke-width:2.4;stroke-linecap:butt;stroke-linejoin:round;stroke:rgb(0%,0%,100%);stroke-opacity:1;stroke-miterlimit:10;" d="M 620.125 429.65625 C 620.125 459.738281 585.96875 484.125 543.835938 484.125 C 501.699219 484.125 467.542969 459.738281 467.542969 429.65625 C 467.542969 399.574219 501.699219 375.191406 543.835938 375.191406 C 585.96875 375.191406 620.125 399.574219 620.125 429.65625 Z M 620.125 429.65625 " transform="matrix(1,0,0,-1,2,594)"/>
<path style="fill:none;stroke-width:2.4;stroke-linecap:butt;stroke-linejoin:round;stroke:rgb(0%,0%,100%);stroke-opacity:1;stroke-miterlimit:10;" d="M 684.507813 429.65625 C 684.507813 485.125 621.527344 530.089844 543.835938 530.089844 C 466.140625 530.089844 403.160156 485.125 403.160156 429.65625 C 403.160156 374.1875 466.140625 329.222656 543.835938 329.222656 C 621.527344 329.222656 684.507813 374.1875 684.507813 429.65625 Z M 684.507813 429.65625 " transform="matrix(1,0,0,-1,2,594)"/>
<path style="fill:none;stroke-width:2.4;stroke-linecap:butt;stroke-linejoin:round;stroke:rgb(0%,0%,100%);stroke-opacity:1;stroke-miterlimit:10;" d="M 501.203125 162.792969 C 501.203125 174.460938 490.289063 183.921875 476.820313 183.921875 C 463.355469 183.921875 452.4375 174.460938 452.4375 162.792969 C 452.4375 151.121094 463.355469 141.660156 476.820313 141.660156 C 490.289063 141.660156 501.203125 151.121094 501.203125 162.792969 Z M 501.203125 162.792969 " transform="matrix(1,0,0,-1,2,594)"/>
<path style="fill:none;stroke-width:2.4;stroke-linecap:butt;stroke-linejoin:round;stroke:rgb(0%,0%,100%);stroke-opacity:1;stroke-miterlimit:10;" d="M 549.96875 162.792969 C 549.96875 197.800781 517.21875 226.183594 476.820313 226.183594 C 436.421875 226.183594 403.671875 197.800781 403.671875 162.792969 C 403.671875 127.78125 436.421875 99.402344 476.820313 99.402344 C 517.21875 99.402344 549.96875 127.78125 549.96875 162.792969 Z M 549.96875 162.792969 " transform="matrix(1,0,0,-1,2,594)"/>
<path style="fill:none;stroke-width:2.4;stroke-linecap:butt;stroke-linejoin:round;stroke:rgb(0%,0%,100%);stroke-opacity:1;stroke-miterlimit:10;" d="M 563.03125 88.085938 C 610.640625 129.347656 610.640625 196.242188 563.03125 237.5 C 515.421875 278.757813 438.230469 278.757813 390.617188 237.5 C 343.007813 196.242188 343.007813 129.347656 390.617188 88.085938 C 438.230469 46.828125 515.421875 46.828125 563.03125 88.085938 Z M 563.03125 88.085938 " transform="matrix(1,0,0,-1,2,594)"/>
<path style="fill:none;stroke-width:2.4;stroke-linecap:butt;stroke-linejoin:round;stroke:rgb(0%,0%,100%);stroke-opacity:1;stroke-miterlimit:10;" d="M 322.667969 466.667969 C 298.667969 464 261.332031 464 218.667969 432 C 176 400 128 336 117.332031 282.667969 C 106.667969 229.332031 133.332031 186.667969 165.332031 173.332031 C 197.332031 160 234.667969 176 261.332031 181.332031 C 288 186.667969 304 181.332031 317.332031 157.332031 C 330.667969 133.332031 341.332031 90.667969 376 61.332031 C 410.667969 32 469.332031 16 522.667969 26.667969 C 576 37.332031 624 74.667969 637.332031 117.332031 C 650.667969 160 629.332031 208 621.332031 240 C 613.332031 272 618.667969 288 640 309.332031 C 661.332031 330.667969 698.667969 357.332031 712 394.667969 C 725.332031 432 714.667969 480 688 512 C 661.332031 544 618.667969 560 576 565.332031 C 533.332031 570.667969 490.667969 565.332031 456 549.332031 C 421.332031 533.332031 394.667969 506.667969 376 490.667969 C 357.332031 474.667969 346.667969 469.332031 322.667969 466.667969 Z M 322.667969 466.667969 " transform="matrix(1,0,0,-1,2,594)"/>
<path style=" stroke:none;fill-rule:evenodd;fill:rgb(100%,54.9%,0%);fill-opacity:1;" d="M 264.136719 277.292969 L 279.136719 262.292969 L 277.035156 260.195313 L 262.035156 275.195313 Z M 264.136719 277.292969 "/>
<path style=" stroke:none;fill-rule:evenodd;fill:rgb(100%,54.9%,0%);fill-opacity:1;" d="M 264.136719 260.195313 L 279.136719 275.195313 L 277.035156 277.292969 L 262.035156 262.292969 Z M 264.136719 260.195313 "/>
<path style=" stroke:none;fill-rule:evenodd;fill:rgb(100%,54.9%,0%);fill-opacity:1;" d="M 228.566406 332.074219 L 243.566406 317.074219 L 241.464844 314.972656 L 226.464844 329.972656 Z M 228.566406 332.074219 "/>
<path style=" stroke:none;fill-rule:evenodd;fill:rgb(100%,54.9%,0%);fill-opacity:1;" d="M 228.566406 314.972656 L 243.566406 329.972656 L 241.464844 332.074219 L 226.464844 317.074219 Z M 228.566406 314.972656 "/>
<path style=" stroke:none;fill-rule:evenodd;fill:rgb(100%,54.9%,0%);fill-opacity:1;" d="M 210.78125 276.582031 L 225.78125 261.582031 L 223.679688 259.484375 L 208.679688 274.484375 Z M 210.78125 276.582031 "/>
<path style=" stroke:none;fill-rule:evenodd;fill:rgb(100%,54.9%,0%);fill-opacity:1;" d="M 210.78125 259.484375 L 225.78125 274.484375 L 223.679688 276.582031 L 208.679688 261.582031 Z M 210.78125 259.484375 "/>
<path style=" stroke:none;fill-rule:evenodd;fill:rgb(100%,54.9%,0%);fill-opacity:1;" d="M 241.371094 277.292969 L 256.371094 262.292969 L 254.269531 260.195313 L 239.269531 275.195313 Z M 241.371094 277.292969 "/>
<path style=" stroke:none;fill-rule:evenodd;fill:rgb(100%,54.9%,0%);fill-opacity:1;" d="M 241.371094 260.195313 L 256.371094 275.195313 L 254.269531 277.292969 L 239.269531 262.292969 Z M 241.371094 260.195313 "/>
<path style=" stroke:none;fill-rule:evenodd;fill:rgb(100%,54.9%,0%);fill-opacity:1;" d="M 237.8125 309.308594 L 252.8125 294.308594 L 250.714844 292.210938 L 235.714844 307.210938 Z M 237.8125 309.308594 "/>
<path style=" stroke:none;fill-rule:evenodd;fill:rgb(100%,54.9%,0%);fill-opacity:1;" d="M 237.8125 292.210938 L 252.8125 307.210938 L 250.714844 309.308594 L 235.714844 294.308594 Z M 237.8125 292.210938 "/>
<path style=" stroke:none;fill-rule:evenodd;fill:rgb(100%,54.9%,0%);fill-opacity:1;" d="M 336.703125 251.683594 L 351.703125 236.683594 L 349.601563 234.582031 L 334.601563 249.582031 Z M 336.703125 251.683594 "/>
<path style=" stroke:none;fill-rule:evenodd;fill:rgb(100%,54.9%,0%);fill-opacity:1;" d="M 336.703125 234.582031 L 351.703125 249.582031 L 349.601563 251.683594 L 334.601563 236.683594 Z M 336.703125 234.582031 "/>
<path style=" stroke:none;fill-rule:evenodd;fill:rgb(100%,54.9%,0%);fill-opacity:1;" d="M 281.210938 344.878906 L 296.210938 329.878906 L 294.109375 327.78125 L 279.109375 342.78125 Z M 281.210938 344.878906 "/>
<path style=" stroke:none;fill-rule:evenodd;fill:rgb(100%,54.9%,0%);fill-opacity:1;" d="M 281.210938 327.78125 L 296.210938 342.78125 L 294.109375 344.878906 L 279.109375 329.878906 Z M 281.210938 327.78125 "/>
<path style=" stroke:none;fill-rule:evenodd;fill:rgb(100%,54.9%,0%);fill-opacity:1;" d="M 262.003906 231.761719 L 277.003906 216.761719 L 274.902344 214.664063 L 259.902344 229.664063 Z M 262.003906 231.761719 "/>
<path style=" stroke:none;fill-rule:evenodd;fill:rgb(100%,54.9%,0%);fill-opacity:1;" d="M 262.003906 214.664063 L 277.003906 229.664063 L 274.902344 231.761719 L 259.902344 216.761719 Z M 262.003906 214.664063 "/>
<path style=" stroke:none;fill-rule:evenodd;fill:rgb(100%,54.9%,0%);fill-opacity:1;" d="M 279.078125 189.078125 L 294.078125 174.078125 L 291.976563 171.976563 L 276.976563 186.976563 Z M 279.078125 189.078125 "/>
<path style=" stroke:none;fill-rule:evenodd;fill:rgb(100%,54.9%,0%);fill-opacity:1;" d="M 279.078125 171.976563 L 294.078125 186.976563 L 291.976563 189.078125 L 276.976563 174.078125 Z M 279.078125 171.976563 "/>
<path style=" stroke:none;fill-rule:evenodd;fill:rgb(100%,54.9%,0%);fill-opacity:1;" d="M 181.609375 337.765625 L 196.609375 322.765625 L 194.511719 320.664063 L 179.511719 335.664063 Z M 181.609375 337.765625 "/>
<path style=" stroke:none;fill-rule:evenodd;fill:rgb(100%,54.9%,0%);fill-opacity:1;" d="M 181.609375 320.664063 L 196.609375 335.664063 L 194.511719 337.765625 L 179.511719 322.765625 Z M 181.609375 320.664063 "/>
<path style=" stroke:none;fill-rule:evenodd;fill:rgb(100%,54.9%,0%);fill-opacity:1;" d="M 425.628906 340.609375 L 440.628906 325.609375 L 438.53125 323.511719 L 423.53125 338.511719 Z M 425.628906 340.609375 "/>
<path style=" stroke:none;fill-rule:evenodd;fill:rgb(100%,54.9%,0%);fill-opacity:1;" d="M 425.628906 323.511719 L 440.628906 338.511719 L 438.53125 340.609375 L 423.53125 325.609375 Z M 425.628906 323.511719 "/>
<path style=" stroke:none;fill-rule:evenodd;fill:rgb(100%,54.9%,0%);fill-opacity:1;" d="M 413.535156 455.863281 L 428.535156 440.863281 L 426.4375 438.761719 L 411.4375 453.761719 Z M 413.535156 455.863281 "/>
<path style=" stroke:none;fill-rule:evenodd;fill:rgb(100%,54.9%,0%);fill-opacity:1;" d="M 413.535156 438.761719 L 428.535156 453.761719 L 426.4375 455.863281 L 411.4375 440.863281 Z M 413.535156 438.761719 "/>
<path style=" stroke:none;fill-rule:evenodd;fill:rgb(100%,54.9%,0%);fill-opacity:1;" d="M 488.234375 386.140625 L 503.234375 371.140625 L 501.136719 369.042969 L 486.136719 384.042969 Z M 488.234375 386.140625 "/>
<path style=" stroke:none;fill-rule:evenodd;fill:rgb(100%,54.9%,0%);fill-opacity:1;" d="M 488.234375 369.042969 L 503.234375 384.042969 L 501.136719 386.140625 L 486.136719 371.140625 Z M 488.234375 369.042969 "/>
<path style=" stroke:none;fill-rule:evenodd;fill:rgb(100%,54.9%,0%);fill-opacity:1;" d="M 508.867188 410.332031 L 523.867188 395.332031 L 521.765625 393.230469 L 506.765625 408.230469 Z M 508.867188 410.332031 "/>
<path style=" stroke:none;fill-rule:evenodd;fill:rgb(100%,54.9%,0%);fill-opacity:1;" d="M 508.867188 393.230469 L 523.867188 408.230469 L 521.765625 410.332031 L 506.765625 395.332031 Z M 508.867188 393.230469 "/>
<path style=" stroke:none;fill-rule:evenodd;fill:rgb(100%,54.9%,0%);fill-opacity:1;" d="M 491.082031 490.011719 L 506.082031 475.011719 L 503.980469 472.910156 L 488.980469 487.910156 Z M 491.082031 490.011719 "/>
<path style=" stroke:none;fill-rule:evenodd;fill:rgb(100%,54.9%,0%);fill-opacity:1;" d="M 491.082031 472.910156 L 506.082031 487.910156 L 503.980469 490.011719 L 488.980469 475.011719 Z M 491.082031 472.910156 "/>
<path style=" stroke:none;fill-rule:evenodd;fill:rgb(100%,54.9%,0%);fill-opacity:1;" d="M 476.140625 445.902344 L 491.140625 430.902344 L 489.039063 428.800781 L 474.039063 443.800781 Z M 476.140625 445.902344 "/>
<path style=" stroke:none;fill-rule:evenodd;fill:rgb(100%,54.9%,0%);fill-opacity:1;" d="M 476.140625 428.800781 L 491.140625 443.800781 L 489.039063 445.902344 L 474.039063 430.902344 Z M 476.140625 428.800781 "/>
<path style=" stroke:none;fill-rule:evenodd;fill:rgb(100%,54.9%,0%);fill-opacity:1;" d="M 469.027344 521.3125 L 484.027344 506.3125 L 481.925781 504.214844 L 466.925781 519.214844 Z M 469.027344 521.3125 "/>
<path style=" stroke:none;fill-rule:evenodd;fill:rgb(100%,54.9%,0%);fill-opacity:1;" d="M 469.027344 504.214844 L 484.027344 519.214844 L 481.925781 521.3125 L 466.925781 506.3125 Z M 469.027344 504.214844 "/>
<path style=" stroke:none;fill-rule:evenodd;fill:rgb(100%,54.9%,0%);fill-opacity:1;" d="M 535.902344 180.539063 L 550.902344 165.539063 L 548.800781 163.441406 L 533.800781 178.441406 Z M 535.902344 180.539063 "/>
<path style=" stroke:none;fill-rule:evenodd;fill:rgb(100%,54.9%,0%);fill-opacity:1;" d="M 535.902344 163.441406 L 550.902344 178.441406 L 548.800781 180.539063 L 533.800781 165.539063 Z M 535.902344 163.441406 "/>
<path style=" stroke:none;fill-rule:evenodd;fill:rgb(100%,54.9%,0%);fill-opacity:1;" d="M 472.585938 172.714844 L 487.585938 157.714844 L 485.484375 155.613281 L 470.484375 170.613281 Z M 472.585938 172.714844 "/>
<path style=" stroke:none;fill-rule:evenodd;fill:rgb(100%,54.9%,0%);fill-opacity:1;" d="M 472.585938 155.613281 L 487.585938 170.613281 L 485.484375 172.714844 L 470.484375 157.714844 Z M 472.585938 155.613281 "/>
<path style=" stroke:none;fill-rule:evenodd;fill:rgb(100%,54.9%,0%);fill-opacity:1;" d="M 530.210938 128.605469 L 545.210938 113.605469 L 543.109375 111.507813 L 528.109375 126.507813 Z M 530.210938 128.605469 "/>
<path style=" stroke:none;fill-rule:evenodd;fill:rgb(100%,54.9%,0%);fill-opacity:1;" d="M 530.210938 111.507813 L 545.210938 126.507813 L 543.109375 128.605469 L 528.109375 113.605469 Z M 530.210938 111.507813 "/>
<path style=" stroke:none;fill-rule:evenodd;fill:rgb(100%,54.9%,0%);fill-opacity:1;" d="M 623.40625 127.894531 L 638.40625 112.894531 L 636.304688 110.796875 L 621.304688 125.796875 Z M 623.40625 127.894531 "/>
<path style=" stroke:none;fill-rule:evenodd;fill:rgb(100%,54.9%,0%);fill-opacity:1;" d="M 623.40625 110.796875 L 638.40625 125.796875 L 636.304688 127.894531 L 621.304688 112.894531 Z M 623.40625 110.796875 "/>
<path style=" stroke:none;fill-rule:evenodd;fill:rgb(100%,54.9%,0%);fill-opacity:1;" d="M 590.679688 85.921875 L 605.679688 70.921875 L 603.582031 68.820313 L 588.582031 83.820313 Z M 590.679688 85.921875 "/>
<path style=" stroke:none;fill-rule:evenodd;fill:rgb(100%,54.9%,0%);fill-opacity:1;" d="M 590.679688 68.820313 L 605.679688 83.820313 L 603.582031 85.921875 L 588.582031 70.921875 Z M 590.679688 68.820313 "/>
<path style=" stroke:none;fill-rule:evenodd;fill:rgb(100%,54.9%,0%);fill-opacity:1;" d="M 597.085938 256.664063 L 612.085938 241.664063 L 609.984375 239.5625 L 594.984375 254.5625 Z M 597.085938 256.664063 "/>
<path style=" stroke:none;fill-rule:evenodd;fill:rgb(100%,54.9%,0%);fill-opacity:1;" d="M 597.085938 239.5625 L 612.085938 254.5625 L 609.984375 256.664063 L 594.984375 241.664063 Z M 597.085938 239.5625 "/>
<path style=" stroke:none;fill-rule:evenodd;fill:rgb(100%,54.9%,0%);fill-opacity:1;" d="M 529.496094 153.507813 L 544.496094 138.507813 L 542.398438 136.40625 L 527.398438 151.40625 Z M 529.496094 153.507813 "/>
<path style=" stroke:none;fill-rule:evenodd;fill:rgb(100%,54.9%,0%);fill-opacity:1;" d="M 529.496094 136.40625 L 544.496094 151.40625 L 542.398438 153.507813 L 527.398438 138.507813 Z M 529.496094 136.40625 "/>
<path style=" stroke:none;fill-rule:evenodd;fill:rgb(100%,54.9%,0%);fill-opacity:1;" d="M 530.921875 172.003906 L 545.921875 157.003906 L 543.820313 154.902344 L 528.820313 169.902344 Z M 530.921875 172.003906 "/>
<path style=" stroke:none;fill-rule:evenodd;fill:rgb(100%,54.9%,0%);fill-opacity:1;" d="M 530.921875 154.902344 L 545.921875 169.902344 L 543.820313 172.003906 L 528.820313 157.003906 Z M 530.921875 154.902344 "/>
<path style=" stroke:none;fill-rule:evenodd;fill:rgb(100%,54.9%,0%);fill-opacity:1;" d="M 271.25 298.636719 L 286.25 283.636719 L 284.152344 281.535156 L 269.152344 296.535156 Z M 271.25 298.636719 "/>
<path style=" stroke:none;fill-rule:evenodd;fill:rgb(100%,54.9%,0%);fill-opacity:1;" d="M 271.25 281.535156 L 286.25 296.535156 L 284.152344 298.636719 L 269.152344 283.636719 Z M 271.25 281.535156 "/>
<path style=" stroke:none;fill-rule:evenodd;fill:rgb(100%,54.9%,0%);fill-opacity:1;" d="M 388.636719 197.613281 L 403.636719 182.613281 L 401.535156 180.515625 L 386.535156 195.515625 Z M 388.636719 197.613281 "/>
<path style=" stroke:none;fill-rule:evenodd;fill:rgb(100%,54.9%,0%);fill-opacity:1;" d="M 388.636719 180.515625 L 403.636719 195.515625 L 401.535156 197.613281 L 386.535156 182.613281 Z M 388.636719 180.515625 "/>
<path style="fill:none;stroke-width:3.6;stroke-linecap:butt;stroke-linejoin:round;stroke:rgb(100%,100%,100%);stroke-opacity:1;stroke-miterlimit:10;" d="M 0 0 L 0 592 L 896 592 L 896 0 Z M 0 0 " transform="matrix(1,0,0,-1,2,594)"/>
</g>
</svg>
